name C:\Users\u0150099\Documents\master_thesis\3dpredictsim\Results\debug\Fal_s1_mtjc2_sc_cspx10_oy2_ATx70_MTc2_MTPm_k1_d01_MTJm_nl_MG_exp5_table_d01_PF_Natali2010_x3_ls146_ig21_mtptau.mot
datacolumns 128
datarows 4
range 1.62126203 1.65368727
endheader
time	pelvis_tilt	pelvis_list	pelvis_rotation	pelvis_tx	pelvis_ty	pelvis_tz	hip_flexion_l	hip_adduction_l	hip_rotation_l	hip_flexion_r	hip_adduction_r	hip_rotation_r	knee_angle_l	knee_angle_r	ankle_angle_l	ankle_angle_r	subtalar_angle_l	subtalar_angle_r	mtj_angle_l	mtj_angle_r	mtp_angle_l	mtp_angle_r	lumbar_extension	lumbar_bending	lumbar_rotation	arm_flex_l	arm_add_l	arm_rot_l	arm_flex_r	arm_add_r	arm_rot_r	elbow_flex_l	elbow_flex_r	pro_sup_l	pro_sup_r	glut_med1_l/activation	glut_med2_l/activation	glut_med3_l/activation	glut_min1_l/activation	glut_min2_l/activation	glut_min3_l/activation	semimem_l/activation	semiten_l/activation	bifemlh_l/activation	bifemsh_l/activation	sar_l/activation	add_long_l/activation	add_brev_l/activation	add_mag1_l/activation	add_mag2_l/activation	add_mag3_l/activation	tfl_l/activation	pect_l/activation	grac_l/activation	glut_max1_l/activation	glut_max2_l/activation	glut_max3_l/activation	iliacus_l/activation	psoas_l/activation	quad_fem_l/activation	gem_l/activation	peri_l/activation	rect_fem_l/activation	vas_med_l/activation	vas_int_l/activation	vas_lat_l/activation	med_gas_l/activation	lat_gas_l/activation	soleus_l/activation	tib_post_l/activation	flex_dig_l/activation	flex_hal_l/activation	tib_ant_l/activation	per_brev_l/activation	per_long_l/activation	per_tert_l/activation	ext_dig_l/activation	ext_hal_l/activation	ercspn_l/activation	intobl_l/activation	extobl_l/activation	glut_med1_r/activation	glut_med2_r/activation	glut_med3_r/activation	glut_min1_r/activation	glut_min2_r/activation	glut_min3_r/activation	semimem_r/activation	semiten_r/activation	bifemlh_r/activation	bifemsh_r/activation	sar_r/activation	add_long_r/activation	add_brev_r/activation	add_mag1_r/activation	add_mag2_r/activation	add_mag3_r/activation	tfl_r/activation	pect_r/activation	grac_r/activation	glut_max1_r/activation	glut_max2_r/activation	glut_max3_r/activation	iliacus_r/activation	psoas_r/activation	quad_fem_r/activation	gem_r/activation	peri_r/activation	rect_fem_r/activation	vas_med_r/activation	vas_int_r/activation	vas_lat_r/activation	med_gas_r/activation	lat_gas_r/activation	soleus_r/activation	tib_post_r/activation	flex_dig_r/activation	flex_hal_r/activation	tib_ant_r/activation	per_brev_r/activation	per_long_r/activation	per_tert_r/activation	ext_dig_r/activation	ext_hal_r/activation	ercspn_r/activation	intobl_r/activation	extobl_r/activation	
          1.62126203	         -2.92721422	          1.48794368	         -3.22520651	          2.15627850	          0.90894048	          0.00242067	         29.08901167	          3.30619804	         -1.32452931	        -16.95580587	          1.63952383	          9.92064810	        -10.84095395	        -10.67625671	          8.19851666	          5.61660930	         -0.86244447	          3.62451402	          0.28290722	         -1.57521136	          1.12636667	         17.14659573	         -3.96371399	         -0.64127432	          1.78929706	         -3.93069582	        -13.47588790	          7.25024044	          4.58791334	        -13.64653311	         19.37197183	         23.75820037	         33.54828720	         86.51662706	         86.51662706	          0.05001995	          0.05000010	          0.05900699	          0.05000003	          0.05000005	          0.05000025	          0.27126852	          0.07859212	          0.31489667	          0.06240631	          0.05000020	          0.11238816	          0.15138749	          0.10661921	          0.15893686	          0.16238608	          0.05900682	          0.05000187	          0.15518577	          0.05900717	          0.07448302	          0.11941580	          0.05000002	          0.05000004	          0.11965833	          0.05000017	          0.05000005	          0.05000003	          0.05000070	          0.05000059	          0.05000044	          0.05895030	          0.05000006	          0.05000000	          0.05323124	          0.05000046	          0.05000028	          0.31447415	          0.12597393	          0.14012369	          0.11223266	          0.48308620	          0.25072569	          0.05900709	          0.07918976	          0.09934581	          0.36425787	          0.06960266	          0.05000003	          0.52512685	          0.20606290	          0.08218079	          0.05000052	          0.05000005	          0.05000004	          0.06963703	          0.10274723	          0.05000002	          0.05000002	          0.05000005	          0.05000021	          0.05000017	          0.52057653	          0.05000012	          0.05000009	          0.05000083	          0.05000038	          0.05000021	          0.41262505	          0.76658568	          0.05000002	          0.05000013	          0.05000003	          0.39074777	          0.09725288	          0.10477616	          0.08255567	          0.40257183	          0.46889030	          0.32026613	          0.39084708	          0.31233264	          0.45657651	          0.05000000	          0.06963636	          0.17902889	          0.05000002	          0.05000001	          0.08553742	          0.05000000	          0.05000000	          0.05000000	
          1.63207044	         -2.92978691	          1.57085792	         -3.50647192	          2.17324391	          0.90812227	          0.00220472	         28.73413629	          3.67732613	         -1.28575737	        -17.13243765	          1.31232615	          9.85552165	        -11.05552930	        -11.99955288	          7.68676879	          4.72601592	         -0.94486269	          4.45117963	          0.54376265	         -2.67309663	          0.39414861	         19.94625875	         -3.79438792	         -0.80583239	          1.88870370	         -4.63334813	        -13.45405438	          6.86559222	          4.22601269	        -13.59790945	         19.28752040	         23.17537776	         34.81118802	         86.51662706	         86.51662706	          0.05900700	          0.05900701	          0.05000004	          0.05900702	          0.05900702	          0.05900694	          0.23661384	          0.06659560	          0.27575937	          0.05900703	          0.05000011	          0.13526939	          0.20159964	          0.09034459	          0.13467671	          0.17755614	          0.05000003	          0.07570696	          0.13149814	          0.05000019	          0.06311374	          0.19454489	          0.05874628	          0.05000014	          0.35416072	          0.20998584	          0.09932200	          0.05000001	          0.05000002	          0.05000002	          0.05000001	          0.05915768	          0.05000089	          0.05000000	          0.06310193	          0.05000366	          0.08206322	          0.32806714	          0.16076803	          0.16088171	          0.11761953	          0.53682177	          0.24198629	          0.05000007	          0.06710200	          0.08418136	          0.30865648	          0.05897830	          0.05000000	          0.44496992	          0.17460884	          0.06963648	          0.05000045	          0.05000004	          0.05000003	          0.05900742	          0.08706362	          0.10755874	          0.05049078	          0.05000018	          0.05000046	          0.05000023	          0.46203224	          0.06560806	          0.05000008	          0.05000015	          0.05000009	          0.05000010	          0.34964071	          0.71127398	          0.05000000	          0.05000004	          0.05000001	          0.37279894	          0.12310621	          0.12674021	          0.10616544	          0.34112204	          0.39731747	          0.27137973	          0.33520064	          0.26465741	          0.38688352	          0.05000000	          0.05900695	          0.15170138	          0.05000001	          0.05000000	          0.07248073	          0.05000000	          0.05000004	          0.06969398	
          1.64287886	         -2.93017651	          1.66452956	         -3.77237866	          2.19051203	          0.90735134	          0.00196883	         28.37699066	          4.00501063	         -1.22866806	        -17.22603711	          0.96506865	          9.74421172	        -11.92176122	        -13.41611125	          6.76696979	          3.61730392	         -1.00684637	          5.32566965	          0.75985912	         -3.86729932	         -0.30687865	         22.94535660	         -3.60827725	         -0.98082748	          1.98076649	         -5.36587965	        -13.45200858	          6.66870359	          3.77660566	        -13.56169801	         19.16982943	         22.62128668	         36.13260212	         86.51662706	         86.51662706	          0.05000000	          0.05000001	          0.14381090	          0.05000001	          0.05000001	          0.05000002	          0.20049639	          0.05643025	          0.23366662	          0.05000003	          0.06963655	          0.11462153	          0.32958233	          0.37238075	          0.25343304	          0.20312236	          0.05000026	          0.06415601	          0.11142592	          0.10912360	          0.13382759	          0.19556304	          0.06963644	          0.06963653	          0.57492751	          0.17793297	          0.08416120	          0.05900936	          0.05900933	          0.07212127	          0.05900716	          0.06963652	          0.06963655	          0.06848825	          0.05346987	          0.06963650	          0.06963650	          0.40589604	          0.23353962	          0.15628612	          0.34148627	          0.45487970	          0.20504877	          0.05000000	          0.05685934	          0.07133166	          0.26154222	          0.05900695	          0.05900700	          0.37704836	          0.14795602	          0.05900700	          0.05000111	          0.05000015	          0.05000046	          0.05000036	          0.07377400	          0.21502674	          0.12807769	          0.05900712	          0.05900666	          0.05900744	          0.39150633	          0.05559359	          0.05000364	          0.05900445	          0.05900669	          0.05900689	          0.29627049	          0.65383798	          0.05900700	          0.05900699	          0.05000114	          0.31589401	          0.14885433	          0.15824515	          0.12756695	          0.28905213	          0.33666972	          0.22995550	          0.28403459	          0.22425931	          0.32782846	          0.05000000	          0.05000000	          0.12854522	          0.05000000	          0.05000000	          0.06141705	          0.06453789	          0.06416396	          0.06963650	
          1.65368727	         -2.92877596	          1.79196783	         -4.02065220	          2.20799791	          0.90664678	          0.00174796	         27.96516185	          4.25127314	         -1.10489885	        -17.21647001	          0.58878851	          9.59749528	        -13.01999393	        -14.94403813	          5.68102483	          2.24897539	         -1.05421603	          6.19763065	          1.06291206	         -5.10369267	         -0.85117308	         26.06832829	         -3.40883893	         -1.19235903	          2.06283447	         -6.10553718	        -13.47571134	          6.64853662	          3.25319489	        -13.53153703	         19.03769355	         22.07356401	         37.50504763	         86.51662706	         86.51662706	          0.36534059	          0.35265433	          0.39280918	          0.44785337	          0.30281970	          0.25348657	          0.16989201	          0.12334358	          0.19799905	          0.06963713	          0.05900706	          0.09712538	          0.28553915	          0.31553945	          0.21474844	          0.26171337	          0.05000007	          0.05901299	          0.18494411	          0.25453288	          0.22863634	          0.27035471	          0.05900701	          0.05900701	          0.48716882	          0.15077277	          0.10953361	          0.05000199	          0.05000197	          0.06111247	          0.05000013	          0.05900699	          0.05900702	          0.05803400	          0.05900695	          0.05900702	          0.05900702	          0.52513870	          0.19789143	          0.13243015	          0.35366567	          0.63957048	          0.53758805	          0.08089597	          0.09462221	          0.06044338	          0.25315027	          0.05000000	          0.05000000	          0.31949473	          0.12537158	          0.05000003	          0.05000049	          0.05000004	          0.05000001	          0.05000048	          0.06251298	          0.23512938	          0.11912382	          0.05000016	          0.05000019	          0.05000043	          0.46579761	          0.06963659	          0.05000006	          0.05000011	          0.05000006	          0.05000004	          0.25104687	          0.68107747	          0.05000000	          0.05000003	          0.05000000	          0.26767499	          0.12613276	          0.13409014	          0.10809475	          0.24493032	          0.28527943	          0.19485439	          0.24067869	          0.19002769	          0.27778774	          0.12005918	          0.12084744	          0.11399391	          0.05000004	          0.05000002	          0.05204217	          0.09184293	          0.05436978	          0.05900697	
